<?xml version="1.0" encoding="UTF-8" standalone="no"?>
<!DOCTYPE svg PUBLIC "-//W3C//DTD SVG 1.1//EN" "http://www.w3.org/Graphics/SVG/1.1/DTD/svg11.dtd">
<svg width="100%" height="100%" viewBox="0 0 270 337" version="1.1" xmlns="http://www.w3.org/2000/svg" xmlns:xlink="http://www.w3.org/1999/xlink" xml:space="preserve" xmlns:serif="http://www.serif.com/" style="fill-rule:evenodd;clip-rule:evenodd;stroke-linejoin:round;stroke-miterlimit:2;">
    <g transform="matrix(1,0,0,1,-863.198,-995.003)">
        <g transform="matrix(4.16667,0,0,4.16667,986.372,1175.93)">
            <path d="M0,-2.297C-0.279,-2.665 -0.553,-3.062 -0.84,-3.406C-1.196,-3.829 -1.595,-4.214 -1.971,-4.62L-1.975,-4.624C-2.918,-5.64 -3.862,-6.653 -4.875,-7.594C-9.367,-11.768 -14.42,-15.025 -20.416,-16.602C-21.936,-17.002 -23.377,-17.677 -24.929,-17.952C-24.943,-17.871 -24.947,-17.8 -24.96,-17.72C-18.264,-15.273 -13.656,-10.129 -10.422,-6.062C-6.754,-1.447 -4.011,3.699 -1.889,9.18C-1.054,11.335 -0.279,13.532 0.479,15.655C1.771,11.867 3.033,8.044 4.32,4.215C4.387,4.024 4.366,3.721 4.254,3.564C3.574,2.614 2.89,1.666 2.202,0.722L2.203,0.722L2.194,0.711C1.464,-0.293 0.732,-1.295 0,-2.297" style="fill:rgb(68,127,68);"/>
        </g>
        <g transform="matrix(4.16667,0,0,4.16667,987.268,1175.98)">
            <path d="M0,-2.805C-0.28,-3.173 -0.553,-3.57 -0.842,-3.914C-1.197,-4.337 -1.597,-4.722 -1.973,-5.128L-1.977,-5.132C-2.918,-6.148 -3.862,-7.161 -4.875,-8.102C-9.367,-12.276 -14.42,-15.534 -20.417,-17.11C-21.937,-17.51 -23.517,-17.677 -25.069,-17.951C-25.083,-17.87 -25.096,-17.789 -25.108,-17.708C-18.413,-15.261 -13.656,-10.637 -10.422,-6.569C-6.755,-1.955 -4.012,3.19 -1.889,8.672C-1.054,10.827 -0.325,13.023 0.434,15.146C1.725,11.359 3.032,7.537 4.319,3.708C4.386,3.515 4.366,3.213 4.253,3.056C3.573,2.105 2.889,1.159 2.201,0.214L2.202,0.214L2.193,0.204C1.463,-0.8 0.731,-1.802 0,-2.805" style="fill:rgb(137,196,65);"/>
        </g>
        <g transform="matrix(4.16667,0,0,4.16667,1061.16,1028.8)">
            <path d="M0,5.395C0.072,5.005 0.157,4.625 0.248,4.244C0.44,3.435 0.332,2.61 -0.061,2.046C-0.526,1.385 -0.972,0.704 -1.402,0C-1.595,0.566 -1.78,1.134 -1.947,1.709C-2.248,2.716 -2.023,3.75 -1.434,4.245C-0.964,4.641 -0.486,5.027 0,5.395" style="fill:rgb(252,178,21);fill-rule:nonzero;"/>
        </g>
        <g transform="matrix(4.16667,0,0,4.16667,1058.01,1040.48)">
            <path d="M0,-0.213C0.454,0.375 0.631,1.071 0.708,1.624C0.746,1.901 0.758,2.141 0.76,2.314C0.763,2.486 0.757,2.591 0.757,2.591C0.271,2.224 -0.207,1.837 -0.677,1.441C-1.267,0.947 -1.491,-0.088 -1.19,-1.095C-1.023,-1.67 -0.838,-2.237 -0.646,-2.804C-0.646,-2.804 -0.662,-2.717 -0.674,-2.567C-0.685,-2.416 -0.694,-2.204 -0.668,-1.953C-0.621,-1.451 -0.457,-0.801 0,-0.213" style="fill:rgb(243,151,31);fill-rule:nonzero;"/>
        </g>
        <g transform="matrix(4.16667,0,0,4.16667,1069.02,1017.56)">
            <path d="M0,5.396C0.072,5.006 0.156,4.625 0.249,4.245C0.44,3.436 0.332,2.61 -0.061,2.047C-0.526,1.386 -0.972,0.705 -1.402,0C-1.595,0.567 -1.781,1.135 -1.948,1.709C-2.248,2.717 -2.022,3.75 -1.434,4.245C-0.964,4.642 -0.487,5.028 0,5.396" style="fill:rgb(252,178,21);fill-rule:nonzero;"/>
        </g>
        <g transform="matrix(4.16667,0,0,4.16667,1065.87,1029.24)">
            <path d="M0,-0.213C0.454,0.374 0.629,1.071 0.707,1.624C0.746,1.901 0.757,2.141 0.76,2.314C0.762,2.486 0.756,2.591 0.756,2.591C0.269,2.223 -0.208,1.837 -0.678,1.44C-1.267,0.946 -1.492,-0.088 -1.192,-1.095C-1.025,-1.67 -0.839,-2.238 -0.646,-2.804C-0.646,-2.804 -0.663,-2.717 -0.675,-2.567C-0.685,-2.417 -0.695,-2.205 -0.67,-1.953C-0.622,-1.451 -0.458,-0.801 0,-0.213" style="fill:rgb(243,151,31);fill-rule:nonzero;"/>
        </g>
        <g transform="matrix(4.16667,0,0,4.16667,1077.23,1007.41)">
            <path d="M0,5.504C0.109,5.123 0.231,4.753 0.358,4.382C0.627,3.595 0.598,2.763 0.262,2.165C-0.139,1.462 -0.516,0.741 -0.878,0C-1.124,0.545 -1.363,1.092 -1.584,1.648C-1.979,2.622 -1.856,3.672 -1.315,4.221C-0.887,4.661 -0.448,5.091 0,5.504" style="fill:rgb(252,178,21);fill-rule:nonzero;"/>
        </g>
        <g transform="matrix(4.16667,0,0,4.16667,1075.22,1019.34)">
            <path d="M0,-0.223C0.395,0.406 0.503,1.116 0.527,1.673C0.539,1.953 0.526,2.194 0.514,2.365C0.499,2.536 0.482,2.641 0.482,2.641C0.034,2.228 -0.404,1.798 -0.833,1.358C-1.374,0.809 -1.497,-0.241 -1.102,-1.216C-0.881,-1.771 -0.642,-2.319 -0.396,-2.864C-0.396,-2.864 -0.42,-2.779 -0.447,-2.631C-0.472,-2.482 -0.502,-2.272 -0.5,-2.019C-0.501,-1.516 -0.4,-0.852 0,-0.223" style="fill:rgb(243,151,31);fill-rule:nonzero;"/>
        </g>
        <g transform="matrix(4.16667,0,0,4.16667,1086.15,998.373)">
            <path d="M0,5.535C0.125,5.159 0.26,4.793 0.402,4.427C0.701,3.652 0.705,2.82 0.392,2.209C0.021,1.491 -0.329,0.756 -0.661,0C-0.929,0.535 -1.189,1.073 -1.432,1.619C-1.866,2.577 -1.782,3.632 -1.266,4.202C-0.854,4.657 -0.433,5.105 0,5.535" style="fill:rgb(252,178,21);fill-rule:nonzero;"/>
        </g>
        <g transform="matrix(4.16667,0,0,4.16667,1084.61,1010.38)">
            <path d="M0,-0.227C0.37,0.417 0.45,1.131 0.452,1.689C0.453,1.968 0.432,2.208 0.411,2.379C0.391,2.549 0.37,2.654 0.37,2.654C-0.062,2.224 -0.483,1.776 -0.896,1.32C-1.412,0.751 -1.496,-0.304 -1.062,-1.262C-0.819,-1.808 -0.559,-2.346 -0.291,-2.881C-0.291,-2.881 -0.32,-2.797 -0.352,-2.65C-0.382,-2.502 -0.421,-2.293 -0.43,-2.041C-0.45,-1.538 -0.375,-0.871 0,-0.227" style="fill:rgb(243,151,31);fill-rule:nonzero;"/>
        </g>
        <g transform="matrix(4.16667,0,0,4.16667,1068.31,1045.2)">
            <path d="M0,2.803C0.136,2.446 0.285,2.086 0.441,1.731C0.771,0.973 1.41,0.431 2.073,0.32C2.853,0.186 3.631,0.08 4.401,0C4.155,0.445 3.914,0.893 3.688,1.349C3.285,2.145 2.558,2.682 1.805,2.706C1.204,2.723 0.603,2.753 0,2.803" style="fill:rgb(252,178,21);fill-rule:nonzero;"/>
        </g>
        <g transform="matrix(4.16667,0,0,4.16667,1077.64,1052.1)">
            <path d="M0,-0.507C-0.716,-0.402 -1.288,0.008 -1.669,0.397C-1.858,0.592 -2.003,0.78 -2.098,0.92C-2.194,1.059 -2.239,1.148 -2.239,1.148C-1.637,1.098 -1.035,1.069 -0.435,1.051C0.318,1.027 1.046,0.49 1.449,-0.306C1.675,-0.761 1.916,-1.21 2.162,-1.655C2.162,-1.655 2.115,-1.596 2.024,-1.505C1.933,-1.413 1.792,-1.292 1.612,-1.161C1.25,-0.901 0.713,-0.614 0,-0.507" style="fill:rgb(243,151,31);fill-rule:nonzero;"/>
        </g>
        <g transform="matrix(4.16667,0,0,4.16667,1075.92,1033.4)">
            <path d="M0,2.457C0.158,2.109 0.333,1.76 0.512,1.417C0.892,0.683 1.564,0.184 2.233,0.116C3.019,0.034 3.804,-0.02 4.578,-0.049C4.304,0.378 4.031,0.81 3.776,1.25C3.322,2.018 2.56,2.506 1.808,2.479C1.207,2.457 0.604,2.447 0,2.457" style="fill:rgb(252,178,21);fill-rule:nonzero;"/>
        </g>
        <g transform="matrix(4.16667,0,0,4.16667,1085.69,1039.67)">
            <path d="M0,-0.55C-0.722,-0.492 -1.32,-0.121 -1.726,0.242C-1.928,0.424 -2.085,0.602 -2.188,0.735C-2.294,0.867 -2.345,0.953 -2.345,0.953C-1.74,0.943 -1.138,0.953 -0.537,0.976C0.215,1.002 0.978,0.514 1.432,-0.253C1.687,-0.694 1.959,-1.125 2.233,-1.552C2.233,-1.552 2.183,-1.496 2.085,-1.412C1.988,-1.326 1.839,-1.215 1.651,-1.095C1.273,-0.86 0.718,-0.61 0,-0.55" style="fill:rgb(243,151,31);fill-rule:nonzero;"/>
        </g>
        <g transform="matrix(4.16667,0,0,4.16667,1083.97,1021.6)">
            <path d="M0,2.225C0.171,1.882 0.355,1.539 0.546,1.202C0.949,0.48 1.638,0.003 2.308,-0.042C3.097,-0.098 3.883,-0.128 4.657,-0.131C4.369,0.287 4.084,0.71 3.813,1.141C3.336,1.893 2.558,2.356 1.806,2.306C1.206,2.265 0.605,2.234 0,2.225" style="fill:rgb(252,178,21);fill-rule:nonzero;"/>
        </g>
        <g transform="matrix(4.16667,0,0,4.16667,1093.93,1027.55)">
            <path d="M0,-0.63C-0.722,-0.596 -1.332,-0.244 -1.749,0.106C-1.957,0.281 -2.119,0.454 -2.228,0.584C-2.337,0.713 -2.392,0.797 -2.392,0.797C-1.786,0.807 -1.186,0.837 -0.586,0.878C0.166,0.929 0.944,0.466 1.422,-0.287C1.692,-0.718 1.978,-1.141 2.266,-1.559C2.266,-1.559 2.214,-1.505 2.113,-1.423C2.014,-1.341 1.86,-1.234 1.67,-1.121C1.284,-0.898 0.721,-0.666 0,-0.63" style="fill:rgb(243,151,31);fill-rule:nonzero;"/>
        </g>
        <g transform="matrix(4.16667,0,0,4.16667,1093.34,1184.97)">
            <path d="M0,-40.501C-0.067,-40.46 -0.149,-40.422 -0.257,-40.387C-1.636,-39.932 -5.51,-35.291 -5.547,-35.246C-6.933,-33.384 -8.587,-30.954 -10.49,-27.96C-14.455,-21.722 -19.495,-10.499 -22.505,-3.317L-20.042,0C-20.042,0 -17.733,-6.145 -16.08,-9.992C-14.428,-13.839 -9.359,-24.659 -7.78,-27.57C-6.812,-29.353 -4.486,-33.486 -2.357,-36.727L-2.358,-36.727C-2.358,-36.727 -0.969,-38.884 -0.206,-39.999L0,-40.501Z" style="fill:rgb(137,196,65);fill-rule:nonzero;"/>
        </g>
        <g transform="matrix(4.16667,0,0,4.16667,1091.89,1182.43)">
            <path d="M0,-39.695C-0.341,-39.375 -0.687,-39.059 -1.022,-38.732C-2.533,-37.26 -3.886,-35.648 -5.149,-33.963C-7.247,-31.167 -9.108,-28.215 -10.847,-25.185C-12.437,-22.412 -13.943,-19.593 -15.33,-16.714C-16.536,-14.209 -17.745,-11.706 -18.884,-9.171C-19.875,-6.965 -20.829,-4.741 -21.751,-2.507L-19.893,0C-19.271,-1.613 -18.638,-3.22 -17.986,-4.821C-16.728,-7.909 -15.407,-10.972 -14.08,-14.031C-13.325,-15.772 -12.526,-17.494 -11.703,-19.202C-10.704,-21.275 -9.697,-23.346 -8.62,-25.378C-7.411,-27.658 -6.174,-29.925 -4.849,-32.139C-3.551,-34.307 -2.128,-36.401 -0.755,-38.524C-0.502,-38.914 -0.225,-39.287 0.042,-39.668C0.027,-39.677 0.015,-39.686 0,-39.695" style="fill:rgb(252,178,21);"/>
        </g>
        <g transform="matrix(4.16667,0,0,4.16667,1091.89,1182.43)">
            <path d="M0,-39.695C-0.341,-39.375 -0.687,-39.059 -1.022,-38.732C-2.533,-37.26 -3.886,-35.648 -5.149,-33.963C-7.247,-31.167 -9.108,-28.215 -10.847,-25.185C-12.437,-22.412 -13.943,-19.593 -15.33,-16.714C-16.536,-14.209 -17.745,-11.706 -18.884,-9.171C-19.875,-6.965 -20.829,-4.741 -21.751,-2.507L-19.893,0C-19.271,-1.613 -18.638,-3.22 -17.986,-4.821C-16.728,-7.909 -15.407,-10.972 -14.08,-14.031C-13.325,-15.772 -12.526,-17.494 -11.703,-19.202C-10.704,-21.275 -9.697,-23.346 -8.62,-25.378C-7.411,-27.658 -6.174,-29.925 -4.849,-32.139C-3.551,-34.307 -2.128,-36.401 -0.755,-38.524C-0.502,-38.914 -0.225,-39.287 0.042,-39.668C0.027,-39.677 0.015,-39.686 0,-39.695" style="fill:rgb(68,127,68);"/>
        </g>
        <g transform="matrix(4.16667,0,0,4.16667,1099.17,1002.03)">
            <path d="M0,2.895C0.054,2.934 0.137,2.915 0.183,2.852C0.372,2.596 0.556,2.334 0.766,2.098C0.868,1.979 0.964,1.851 1.073,1.738L1.399,1.398C1.504,1.28 1.621,1.177 1.737,1.073L2.084,0.76L2.45,0.475L2.634,0.331C2.696,0.286 2.763,0.246 2.827,0.203C2.89,0.161 2.911,0.082 2.874,0.027C2.837,-0.029 2.753,-0.039 2.688,0.004C2.622,0.048 2.555,0.089 2.49,0.135L2.304,0.282L1.928,0.573L1.574,0.894C1.455,1 1.336,1.105 1.229,1.226L0.896,1.572C0.785,1.687 0.688,1.817 0.583,1.939C0.369,2.18 0.182,2.446 -0.011,2.707C-0.059,2.771 -0.054,2.855 0,2.895" style="fill:rgb(243,151,31);fill-rule:nonzero;"/>
        </g>
        <g transform="matrix(4.16667,0,0,4.16667,1092.43,995.106)">
            <path d="M0,3.366C-0.053,3.326 -0.053,3.234 0.001,3.161C0.221,2.863 0.435,2.562 0.681,2.283C0.802,2.141 0.914,1.994 1.043,1.859L1.43,1.455C1.555,1.317 1.695,1.192 1.834,1.066L2.252,0.69L2.697,0.343L2.92,0.169C2.996,0.115 3.077,0.065 3.155,0.012C3.233,-0.039 3.327,-0.037 3.364,0.019C3.402,0.075 3.37,0.161 3.294,0.211C3.218,0.263 3.138,0.311 3.063,0.366L2.845,0.535L2.408,0.876L1.997,1.246C1.86,1.369 1.724,1.491 1.601,1.627L1.221,2.025C1.094,2.157 0.983,2.303 0.863,2.441C0.622,2.716 0.411,3.013 0.195,3.306C0.142,3.378 0.055,3.405 0,3.366" style="fill:rgb(243,151,31);fill-rule:nonzero;"/>
        </g>
        <g transform="matrix(4.16667,0,0,4.16667,1094.99,995.704)">
            <path d="M0,3.977C0.055,4.016 0.143,3.99 0.195,3.92C0.743,3.156 1.379,2.456 2.074,1.829L2.336,1.592C2.424,1.515 2.519,1.447 2.611,1.373L2.889,1.158L3.027,1.049C3.073,1.015 3.124,0.984 3.172,0.951L3.757,0.562L4.372,0.22C4.448,0.177 4.487,0.094 4.457,0.034C4.427,-0.026 4.339,-0.039 4.26,0.005L3.631,0.354L3.033,0.752C2.983,0.785 2.932,0.817 2.885,0.852L2.742,0.963L2.459,1.184C2.366,1.259 2.269,1.329 2.179,1.407L1.912,1.647C1.202,2.288 0.556,3.001 0,3.777C-0.056,3.848 -0.055,3.938 0,3.977" style="fill:rgb(243,151,31);fill-rule:nonzero;"/>
        </g>
        <g transform="matrix(4.16667,0,0,4.16667,1093.94,1013.04)">
            <path d="M0,-1.749C0.165,-1.931 0.341,-2.097 0.525,-2.242C0.72,-2.379 0.919,-2.497 1.119,-2.593C1.316,-2.691 1.529,-2.754 1.734,-2.794C1.939,-2.834 2.141,-2.85 2.331,-2.84C2.449,-2.837 2.574,-2.82 2.693,-2.809C2.681,-2.69 2.665,-2.578 2.659,-2.456C2.607,-1.681 2.279,-0.944 1.786,-0.272C1.745,-0.219 1.702,-0.168 1.663,-0.114L1.547,0.053L1.314,0.385C1.227,0.503 1.128,0.611 1.015,0.691C0.899,0.771 0.771,0.825 0.64,0.846L0.334,0.898L0.033,0.961C-0.169,1.005 -0.372,1.052 -0.577,1.101C-0.631,0.899 -0.682,0.694 -0.73,0.486L-0.803,0.172L-0.862,-0.142C-0.887,-0.278 -0.876,-0.43 -0.833,-0.582C-0.79,-0.735 -0.718,-0.89 -0.605,-1.022L-0.308,-1.39L-0.158,-1.572C-0.107,-1.633 -0.054,-1.69 0,-1.749" style="fill:rgb(252,178,21);fill-rule:nonzero;"/>
        </g>
        <g transform="matrix(4.16667,0,0,4.16667,1093.94,1014.05)">
            <path d="M0,-1.991C0.171,-2.177 0.351,-2.348 0.542,-2.495C0.742,-2.636 0.948,-2.755 1.154,-2.85C1.038,-2.753 0.922,-2.652 0.81,-2.542L0.643,-2.378L0.486,-2.204L0.173,-1.857C0.056,-1.732 -0.03,-1.588 -0.087,-1.444C-0.146,-1.301 -0.178,-1.16 -0.177,-1.036C-0.179,-0.654 -0.14,-0.262 -0.11,0.11C0.255,-0.001 0.6,-0.114 0.966,-0.192C1.082,-0.219 1.2,-0.276 1.312,-0.357C1.422,-0.439 1.525,-0.544 1.622,-0.658L1.878,-0.978L2.007,-1.137L2.145,-1.288C2.236,-1.388 2.32,-1.493 2.399,-1.599C2.327,-1.407 2.239,-1.222 2.132,-1.045C2.032,-0.862 1.919,-0.681 1.786,-0.514C1.745,-0.461 1.702,-0.41 1.663,-0.356L1.547,-0.189L1.314,0.143C1.227,0.261 1.128,0.369 1.015,0.449C0.899,0.529 0.771,0.583 0.64,0.604L0.334,0.656L0.033,0.719C-0.169,0.763 -0.372,0.81 -0.577,0.859C-0.631,0.657 -0.682,0.452 -0.73,0.244L-0.803,-0.07L-0.862,-0.384C-0.887,-0.52 -0.876,-0.672 -0.833,-0.824C-0.79,-0.977 -0.718,-1.132 -0.605,-1.264L-0.308,-1.632L-0.158,-1.814C-0.107,-1.875 -0.054,-1.932 0,-1.991" style="fill:rgb(243,151,31);fill-rule:nonzero;"/>
        </g>
        <g transform="matrix(-4.16667,0,0,4.16667,1522.99,1120.33)">
            <rect x="93.65" y="41.578" width="64.701" height="9.188" style="fill:rgb(68,127,68);"/>
        </g>
        <g transform="matrix(4.16667,0,0,4.16667,866.656,1315.05)">
            <path d="M0,-2.323C0,-2.927 0.484,-3.414 1.091,-3.414L5.337,-3.414L5.337,-2.739L1.091,-2.739C0.863,-2.739 0.681,-2.55 0.681,-2.323L0.681,-1.503L5.337,-1.503L5.337,-0.82L0.681,-0.82L0.681,1.091L0,1.091L0,-2.323Z" style="fill:white;fill-rule:nonzero;"/>
        </g>
        <g transform="matrix(4.16667,0,0,4.16667,894.897,1315.68)">
            <path d="M0,-1.425L0,-0.001C0,0.144 0.114,0.259 0.259,0.259L3.565,0.259C3.71,0.259 3.824,0.144 3.824,-0.001L3.824,-1.425C3.824,-1.571 3.71,-1.685 3.565,-1.685L0.259,-1.685C0.114,-1.685 0,-1.571 0,-1.425M-0.681,-0.001L-0.681,-1.425C-0.681,-1.944 -0.257,-2.365 0.259,-2.365L3.565,-2.365C4.083,-2.365 4.505,-1.944 4.505,-1.425L4.505,-0.001C4.505,0.517 4.083,0.94 3.565,0.94L0.259,0.94C-0.257,0.94 -0.681,0.517 -0.681,-0.001" style="fill:white;fill-rule:nonzero;"/>
        </g>
        <g transform="matrix(4.16667,0,0,4.16667,919.673,1315.68)">
            <path d="M0,-1.425L0,-0.001C0,0.144 0.114,0.259 0.259,0.259L3.564,0.259C3.71,0.259 3.823,0.144 3.823,-0.001L3.823,-1.425C3.823,-1.571 3.71,-1.685 3.564,-1.685L0.259,-1.685C0.114,-1.685 0,-1.571 0,-1.425M-0.682,-0.001L-0.682,-1.425C-0.682,-1.944 -0.258,-2.365 0.259,-2.365L3.564,-2.365C4.083,-2.365 4.505,-1.944 4.505,-1.425L4.505,-0.001C4.505,0.517 4.083,0.94 3.564,0.94L0.259,0.94C-0.258,0.94 -0.682,0.517 -0.682,-0.001" style="fill:white;fill-rule:nonzero;"/>
        </g>
        <g transform="matrix(4.16667,0,0,4.16667,941.609,1303.49)">
            <path d="M0,2.925L0,1.501C0,0.983 0.423,0.561 0.941,0.561L4.209,0.561L4.209,1.241L0.941,1.241C0.795,1.241 0.682,1.356 0.682,1.501L0.682,2.925C0.682,3.071 0.795,3.185 0.941,3.185L4.505,3.185L4.505,-0.941L5.187,-0.941L5.187,3.866L0.941,3.866C0.423,3.866 0,3.444 0,2.925" style="fill:white;fill-rule:nonzero;"/>
        </g>
        <g transform="matrix(4.16667,0,0,4.16667,977.268,1315.05)">
            <path d="M0,-2.323C0,-2.927 0.485,-3.414 1.091,-3.414L5.337,-3.414L5.337,-2.739L1.091,-2.739C0.863,-2.739 0.682,-2.55 0.682,-2.323L0.682,-1.503L5.337,-1.503L5.337,-0.82L0.682,-0.82L0.682,1.091L0,1.091L0,-2.323Z" style="fill:white;fill-rule:nonzero;"/>
        </g>
        <g transform="matrix(4.16667,0,0,4.16667,1002.67,1309.75)">
            <path d="M0,1.423L0,1.109C0,0.593 0.423,0.17 0.939,0.17L4.208,0.17L4.208,0.843L0.939,0.843C0.794,0.843 0.681,0.965 0.681,1.109L0.681,1.423C0.681,1.569 0.794,1.683 0.939,1.683L4.504,1.683L4.504,-0.001C4.504,-0.146 4.391,-0.261 4.245,-0.261L0.15,-0.261L0.15,-0.941L4.245,-0.941C4.764,-0.941 5.186,-0.519 5.186,-0.001L5.186,2.364L0.939,2.364C0.423,2.364 0,1.942 0,1.423" style="fill:white;fill-rule:nonzero;"/>
        </g>
        <g transform="matrix(4.16667,0,0,4.16667,1027.44,1309.75)">
            <path d="M0,1.423L0,-0.001C0,-0.519 0.423,-0.941 0.94,-0.941L5.187,-0.941L5.187,-0.261L0.94,-0.261C0.796,-0.261 0.682,-0.146 0.682,-0.001L0.682,1.423C0.682,1.569 0.796,1.683 0.94,1.683L5.187,1.683L5.187,2.364L0.94,2.364C0.423,2.364 0,1.942 0,1.423" style="fill:white;fill-rule:nonzero;"/>
        </g>
        <g transform="matrix(4.16667,0,0,4.16667,1052.22,1306.62)">
            <path d="M0,2.174L0,-0.941L0.682,-0.941L0.682,-0.19L2.329,-0.19L2.329,0.49L0.682,0.49L0.682,2.174C0.682,2.32 0.795,2.434 0.941,2.434L2.63,2.434L2.63,3.115L0.941,3.115C0.423,3.115 0,2.693 0,2.174" style="fill:white;fill-rule:nonzero;"/>
        </g>
        <g transform="matrix(4.16667,0,0,4.16667,1068.79,1315.68)">
            <path d="M0,-1.425L0,-0.001C0,0.144 0.114,0.259 0.259,0.259L3.565,0.259C3.711,0.259 3.824,0.144 3.824,-0.001L3.824,-1.425C3.824,-1.571 3.711,-1.685 3.565,-1.685L0.259,-1.685C0.114,-1.685 0,-1.571 0,-1.425M-0.681,-0.001L-0.681,-1.425C-0.681,-1.944 -0.259,-2.365 0.259,-2.365L3.565,-2.365C4.082,-2.365 4.504,-1.944 4.504,-1.425L4.504,-0.001C4.504,0.517 4.082,0.94 3.565,0.94L0.259,0.94C-0.259,0.94 -0.681,0.517 -0.681,-0.001" style="fill:white;fill-rule:nonzero;"/>
        </g>
        <g transform="matrix(4.16667,0,0,4.16667,1090.73,1315.68)">
            <path d="M0,-1.425C0,-1.944 0.423,-2.365 0.94,-2.365L3.382,-2.365L3.382,-1.685L0.94,-1.685C0.794,-1.685 0.683,-1.571 0.683,-1.425L0.683,0.94L0,0.94L0,-1.425Z" style="fill:white;fill-rule:nonzero;"/>
        </g>
        <g transform="matrix(4.16667,0,0,4.16667,1107.72,1308.64)">
            <path d="M0,3.456L4.247,3.456C4.39,3.456 4.504,3.337 4.504,3.191L4.504,2.63L0.94,2.63C0.423,2.63 0,2.207 0,1.688L0,-0.676L0.682,-0.676L0.682,1.688C0.682,1.834 0.795,1.948 0.94,1.948L4.504,1.948L4.504,-0.676L5.186,-0.676L5.186,3.191C5.186,3.709 4.764,4.132 4.247,4.132L0,4.132L0,3.456Z" style="fill:white;fill-rule:nonzero;"/>
        </g>
        <g transform="matrix(269.588,0,0,-269.588,863.195,1295.04)">
            <rect x="0" y="-0.005" width="1" height="0.011" style="fill:url(#_Linear1);"/>
        </g>
        <g transform="matrix(269.588,0,0,-269.588,863.195,1330.38)">
            <rect x="0" y="-0.005" width="1" height="0.011" style="fill:url(#_Linear2);"/>
        </g>
        <g transform="matrix(4.16667,0,0,4.16667,872.255,1262.05)">
            <path d="M0,5.799L-2.066,-0.562L-0.882,-0.562L1.018,5.265C1.018,5.285 1.057,5.315 1.076,5.315L2.414,5.315C2.443,5.315 2.501,5.285 2.521,5.265L6.886,-0.562L8.069,-0.562L3.307,5.799C3.063,6.118 2.619,6.361 2.25,6.361L0.824,6.361C0.456,6.361 0.106,6.118 0,5.799" style="fill:rgb(68,127,68);fill-rule:nonzero;"/>
        </g>
        <g transform="matrix(4.16667,0,0,4.16667,937.614,1281.57)">
            <path d="M0,-3.57C0.079,-3.92 -0.136,-4.21 -0.484,-4.21L-5.566,-4.21C-5.915,-4.21 -6.265,-3.92 -6.343,-3.57L-6.604,-2.309L-0.261,-2.309L0,-3.57ZM-0.484,-1.261L-6.828,-1.261L-7.447,1.677L-8.494,1.677L-7.39,-3.57C-7.187,-4.502 -6.285,-5.247 -5.353,-5.247L-0.271,-5.247C0.649,-5.247 1.242,-4.502 1.038,-3.57L-0.068,1.677L-1.105,1.677L-0.484,-1.261Z" style="fill:rgb(68,127,68);fill-rule:nonzero;"/>
        </g>
        <g transform="matrix(4.16667,0,0,4.16667,964.55,1274.14)">
            <path d="M0,-0.002L3.103,3.461L1.531,3.461L-0.941,0.677C-0.989,0.639 -1.048,0.6 -1.116,0.561C-1.183,0.532 -1.262,0.522 -1.33,0.522L-3.813,0.522L-4.433,3.461L-5.48,3.461L-4.015,-3.463L-2.968,-3.463L-3.589,-0.525L-1.106,-0.525C-1.039,-0.525 -0.961,-0.535 -0.874,-0.564C-0.787,-0.602 -0.728,-0.641 -0.669,-0.68L-0.669,-0.69L3.006,-3.463L4.566,-3.463L0,-0.002Z" style="fill:rgb(68,127,68);fill-rule:nonzero;"/>
        </g>
        <g transform="matrix(4.16667,0,0,4.16667,1012.5,1271.95)">
            <path d="M0,1.047L-6.343,1.047L-6.964,3.985L-8.011,3.985L-6.546,-2.938L-5.499,-2.938L-6.121,-0.001L0.222,-0.001L0.843,-2.938L1.881,-2.938L0.416,3.985L-0.621,3.985L0,1.047Z" style="fill:rgb(68,127,68);fill-rule:nonzero;"/>
        </g>
        <g transform="matrix(4.16667,0,0,4.16667,1019.67,1266.7)">
            <path d="M0,3.568L1.114,-1.678L2.161,-1.678L1.047,3.568C0.979,3.917 1.192,4.199 1.542,4.199L6.623,4.199C6.972,4.199 7.321,3.917 7.39,3.568L8.505,-1.678L9.542,-1.678L8.426,3.568C8.233,4.499 7.331,5.246 6.41,5.246L1.327,5.246C0.397,5.246 -0.195,4.499 0,3.568" style="fill:rgb(68,127,68);fill-rule:nonzero;"/>
        </g>
        <g transform="matrix(4.16667,0,0,4.16667,1058.76,1266.7)">
            <path d="M0,3.568L1.116,-1.678L2.164,-1.678L1.048,3.568C0.98,3.917 1.193,4.199 1.542,4.199L7.36,4.199L7.148,5.246L1.33,5.246C0.398,5.246 -0.193,4.499 0,3.568" style="fill:rgb(68,127,68);fill-rule:nonzero;"/>
        </g>
        <g transform="matrix(4.16667,0,0,4.16667,1127.84,1281.57)">
            <path d="M0,-3.57C0.078,-3.92 -0.135,-4.21 -0.483,-4.21L-5.566,-4.21C-5.916,-4.21 -6.265,-3.92 -6.342,-3.57L-6.604,-2.309L-0.262,-2.309L0,-3.57ZM-0.483,-1.261L-6.826,-1.261L-7.448,1.677L-8.496,1.677L-7.389,-3.57C-7.186,-4.502 -6.284,-5.247 -5.353,-5.247L-0.271,-5.247C0.651,-5.247 1.241,-4.502 1.038,-3.57L-0.067,1.677L-1.105,1.677L-0.483,-1.261Z" style="fill:rgb(68,127,68);fill-rule:nonzero;"/>
        </g>
    </g>
    <defs>
        <linearGradient id="_Linear1" x1="0" y1="0" x2="1" y2="0" gradientUnits="userSpaceOnUse" gradientTransform="matrix(1,0,0,-1,0,1.93196e-06)"><stop offset="0" style="stop-color:rgb(177,121,43);stop-opacity:1"/><stop offset="0.33" style="stop-color:rgb(244,215,99);stop-opacity:1"/><stop offset="0.52" style="stop-color:rgb(244,222,139);stop-opacity:1"/><stop offset="0.66" style="stop-color:rgb(244,215,99);stop-opacity:1"/><stop offset="1" style="stop-color:rgb(177,121,43);stop-opacity:1"/></linearGradient>
        <linearGradient id="_Linear2" x1="0" y1="0" x2="1" y2="0" gradientUnits="userSpaceOnUse" gradientTransform="matrix(1,0,0,-1,0,4.34613e-06)"><stop offset="0" style="stop-color:rgb(177,121,43);stop-opacity:1"/><stop offset="0.33" style="stop-color:rgb(244,215,99);stop-opacity:1"/><stop offset="0.52" style="stop-color:rgb(244,222,139);stop-opacity:1"/><stop offset="0.66" style="stop-color:rgb(244,215,99);stop-opacity:1"/><stop offset="1" style="stop-color:rgb(177,121,43);stop-opacity:1"/></linearGradient>
    </defs>
</svg>
